# AST/ASF file generated using VICON BodyLanguage
# -----------------------------------------------
:version 1.10
:name VICON
:units
  mass 1.0
  length 0.45
  angle deg
:documentation
   .ast/.asf automatically generated from VICON data using
   VICON BodyBuilder and BodyLanguage model FoxedUp or BRILLIANT.MOD
:root
   order TX TY TZ RX RY RZ
   axis XYZ
   position 0 0 0  
   orientation 0 0 0 
:bonedata
  begin
     id 1 
     name lhipjoint
     direction 0.561001 -0.76473 0.316963 
     length 2.4722 
     axis 0 0 0  XYZ
  end
  begin
     id 2 
     name lfemur
     direction 0.34202 -0.939693 0  
     length 7.59403  
     axis 0 0 20  XYZ
    dof rx ry rz
    limits (-160.0 20.0)
           (-70.0 70.0)
           (-60.0 70.0)
  end
  begin
     id 3 
     name ltibia
     direction 0.34202 -0.939693 0   
     length 7.89655   
     axis 0 0 20   XYZ
    dof rx
    limits (-10.0 170.0)
  end
  begin
     id 4 
     name lfoot
     direction 0.061296 -0.168409 0.98381   
     length 2.73287   
     axis -90 7.62852e-016 20   XYZ
    dof rx rz
    limits (-45.0 90.0)
           (-70.0 20.0)
  end
  begin
     id 5 
     name ltoes
     direction 1.53547e-011 -4.21984e-011 1   
     length 1.37057   
     axis -90 7.62852e-016 20   XYZ
    dof rx
    limits (-90.0 20.0)
  end
  begin
     id 6 
     name rhipjoint
     direction -0.559611 -0.765599 0.317323   
     length 2.46939  
     axis 0 0 0  XYZ 
  end
  begin
     id 7 
     name rfemur
     direction -0.34202 -0.939693 0   
     length 7.53712   
     axis 0 0 -20   XYZ
    dof rx ry rz
    limits (-160.0 20.0)
           (-70.0 70.0)
           (-70.0 60.0)
  end
  begin
     id 8 
     name rtibia
     direction -0.34202 -0.939693 0   
     length 8.12549   
     axis 0 0 -20   XYZ
    dof rx
    limits (-10.0 170.0)
 end
 begin
     id 9 
     name rfoot
     direction -0.066984 -0.184037 0.980634   
     length 2.67541  
     axis -90 -7.62852e-016 -20   XYZ
    dof rx rz
    limits (-45.0 90.0)
           (-20.0 70.0)
  end
  begin
     id 10 
     name rtoes
     direction -1.53549e-011 -4.21786e-011 1   
     length 1.34085   
     axis -90 -7.62852e-016 -20   XYZ
    dof rx
    limits (-90.0 20.0)
  end
  begin
     id 11 
     name lowerback
     direction -0.0522728 0.992594 -0.109658   
     length 2.05633   
     axis 0 0 0   XYZ
    dof rx ry rz
    limits (-20.0 45.0)
           (-30.0 30.0)
           (-30.0 30.0)
  end
  begin
     id 12 
     name upperback
     direction 0.00589338 0.999977 0.00335704   
     length 2.05845   
     axis 0 0 0   XYZ
    dof rx ry rz
    limits (-20.0 45.0)
           (-30.0 30.0)
           (-30.0 30.0)
  end
  begin
     id 13 
     name thorax
     direction 0.0292928 0.998059 0.0549487   
     length 2.09281   
     axis 0 0 0   XYZ
    dof rx ry rz
    limits (-20.0 45.0)
           (-30.0 30.0)
           (-30.0 30.0)
  end
  begin
     id 14 
     name lowerneck
     direction 0.0356368 0.980775 0.191858   
     length 1.84767   
     axis 0 0 0   XYZ
    dof rx ry rz
    limits (-20.0 45.0)
           (-30.0 30.0)
           (-30.0 30.0)
  end
  begin
     id 15 
     name upperneck
     direction -0.0227605 0.98931 -0.14404   
     length 1.89582   
     axis 0 0 0   XYZ
    dof rx ry rz
    limits (-20.0 45.0)
           (-30.0 30.0)
           (-30.0 30.0)
  end
  begin
     id 16
     name head
     direction -0.00932985 0.997511 -0.0698904  
     length 1.90213  
     axis 0 0 0   XYZ
    dof rx ry rz
    limits (-20.0 45.0)
           (-30.0 30.0)
           (-30.0 30.0)
  end
  begin
     id 17 
     name lclavicle
     direction 0.873442 0.479511 0.0846686  
     length 3.41193  
     axis 0 0 0   XYZ
    dof ry rz
    limits (-20.0 10.0)
           (0.0 20.0)
  end
  begin
     id 18 
     name lhumerus
     direction 1 -4.4897e-011 -5.62117e-018   
     length 5.59864   
     axis 180 -30 -90   XYZ
    dof rx ry rz
    limits (-60.0 90.0)
           (-90.0 90.0)
           (-90.0 90.0)
  end
  begin
     id 19
     name lradius
     direction 1 -4.48966e-011 -6.26295e-027   
     length 3.59542   
     axis 180 -30 -90   XYZ
    dof rx
    limits (-10.0 170.0)
  end
  begin
     id 20
     name lwrist
     direction 1 -4.48947e-011 -1.74096e-026   
     length 1.79771   
     axis 1.04567e-014 90 90   XYZ
    dof ry
    limits (-180.0 0.0)
 end
  begin
     id 21 
     name lhand
     direction 1 -4.49085e-011 -3.48469e-026   
     length 0.572014   
     axis 2.22196e-014 90 90   XYZ
    dof rx rz
    limits (-90.0 90.0)
           (-45.0 45.0)
  end
  begin
     id 22 
     name lfingers
     direction 1 -4.48884e-011 -6.96135e-026   
     length 0.461173   
     axis 4.44383e-014 90 90   XYZ
    dof rx
    limits (0.0 90.0)
  end
  begin
     id 23
     name lthumb
     direction 0.707107 -6.34976e-011 0.707107   
     length 0.662154   
     axis -90 45 -5.4397e-014   XYZ
    dof rx rz
    limits (-45.0 45.0)
           (-45.0 45.0)
  end
  begin
     id 24 
     name rclavicle
     direction -0.890242 0.443271 0.104786   
     length 3.46753  
     axis 0 0 0   XYZ 
    dof ry rz
    limits (-10.0 20.0)
           (-20.0 0.0)
  end
  begin
     id 25 
     name rhumerus
     direction -1 -4.48963e-011 -5.41723e-018  
     length 5.8094   
     axis 180 30 90   XYZ
    dof rx ry rz
    limits (-90.0 60.0)
           (-90.0 90.0)
           (-90.0 90.0)
  end
  begin
     id 26 
     name rradius
     direction -1 -4.48958e-011 -6.51059e-027   
     length 3.66953   
     axis 180 30 90   XYZ
    dof rx
    limits (-10.0 170.0)
  end
  begin
     id 27 
     name rwrist
     direction -1 -4.48975e-011 -1.74124e-026   
     length 1.83476   
     axis 1.04567e-014 -90 -90   XYZ
    dof ry
    limits (-180.0 0.0)
  end
  begin
     id 28
     name rhand
     direction -1 -4.49013e-011 -3.48326e-026   
     length 0.57843   
     axis 2.22196e-014 -90 -90   XYZ
    dof rx rz
    limits (-90.0 90.0)
           (-45.0 45.0)
  end
  begin
     id 29
     name rfingers
     direction -1 -4.49023e-011 -6.9669e-026   
     length 0.466345   
     axis 4.44383e-014 -90 -90   XYZ
    dof rx
    limits (0.0 90.0)
  end
  begin
     id 30
     name rthumb
     direction -0.707107 -6.34926e-011 0.707107   
     length 0.669581   
     axis -90 -45 5.4397e-014   XYZ
    dof rx rz
    limits (-45.0 45.0)
           (-45.0 45.0)
  end
:hierarchy
  begin
    root lhipjoint rhipjoint lowerback
    lhipjoint lfemur
    lfemur ltibia
    ltibia lfoot
    lfoot ltoes
    rhipjoint rfemur
    rfemur rtibia
    rtibia rfoot
    rfoot rtoes
    lowerback upperback
    upperback thorax
    thorax lowerneck lclavicle rclavicle
    lowerneck upperneck
    upperneck head
    lclavicle lhumerus
    lhumerus lradius
    lradius lwrist
    lwrist lhand lthumb
    lhand lfingers
    rclavicle rhumerus
    rhumerus rradius
    rradius rwrist
    rwrist rhand rthumb
    rhand rfingers
  end

#!OML:ASF H:\SkateBoarding\Project 1\Capture day 1\Session 1\Skater.ASF
:FULLY-SPECIFIED
:DEGREES
114
root 19.5674 18.5837 17.9742 -20.4093 75.996 -28.9547
lowerback 17.0056 -4.72048 -4.85659
upperback 0.449733 -7.08052 0.696362
thorax -8.33288 -3.18191 5.13243
lowerneck -17.6489 -11.1303 -6.02763
upperneck 33.7782 -17.6483 9.40128
head 16.6535 -6.70081 1.58445
rclavicle 4.85035e-014 3.18055e-015
rhumerus -46.0726 20.9794 -84.2227
rradius 73.0607
rwrist -5.49217
rhand -44.6632 8.3383
rfingers 7.12502
rthumb -17.4595 -20.8976
lclavicle 4.85035e-014 3.18055e-015
lhumerus 1.97544 -35.0515 84.4038
lradius 64.2925
lwrist 21.3565
lhand -32.2604 -7.54114
lfingers 7.12502
lthumb -5.50017 22.3675
rfemur -39.9026 -7.79432 25.9051
rtibia 58.6061
rfoot -31.6874 4.7082
rtoes -6.46993
lfemur -32.2371 -6.91555 -1.09445
ltibia 61.2193
lfoot -41.0441 8.60271
ltoes -28.1502
115
root 19.5059 18.5913 18.428 -22.9395 76.6909 -31.5082
lowerback 16.9357 -4.64996 -5.07753
upperback 0.514064 -7.02462 0.667854
thorax -8.20713 -3.1538 5.19948
lowerneck -17.3175 -11.3948 -5.98816
upperneck 33.5088 -18.1197 9.64229
head 16.5238 -6.88523 1.58965
rclavicle 1.32788e-013 1.74931e-014
rhumerus -46.7149 19.9083 -84.5801
rradius 72.9415
rwrist -5.21545
rhand -44.6161 8.68114
rfingers 7.12502
rthumb -17.4142 -20.5588
lclavicle 1.32788e-013 1.74931e-014
lhumerus 2.07685 -34.9828 84.0868
lradius 63.401
lwrist 21.128
lhand -32.4212 -7.22159
lfingers 7.12502
lthumb -5.65541 22.6829
rfemur -39.6248 -7.07432 25.3559
rtibia 58.4742
rfoot -29.9299 6.20275
rtoes -5.12231
lfemur -32.6493 -7.49577 -0.49399
ltibia 61.0973
lfoot -40.4809 8.24176
ltoes -28.0079
116
root 19.4457 18.593 18.8775 -25.6074 77.3241 -34.2128
lowerback 16.8172 -4.56394 -5.17649
upperback 0.583807 -6.92593 0.58782
thorax -8.07509 -3.11131 5.12984
lowerneck -16.8933 -11.6797 -6.05037
upperneck 33.2155 -18.6211 9.98608
head 16.3958 -7.08752 1.65232
rclavicle -1.55052e-013 1.74931e-014
rhumerus -47.3392 18.7534 -84.9362
rradius 72.7844
rwrist -4.87392
rhand -44.5664 8.67898
rfingers 7.12502
rthumb -17.3664 -20.5652
lclavicle -1.55052e-013 1.74931e-014
lhumerus 2.178 -34.9751 83.8006
lradius 62.4884
lwrist 21.2822
lhand -32.4073 -7.10174
lfingers 7.12502
lthumb -5.64196 22.8031
rfemur -39.4259 -6.53646 24.898
rtibia 58.3264
rfoot -28.3829 7.08149
rtoes -4.73535
lfemur -33.002 -8.08634 0.154857
ltibia 60.8806
lfoot -40.0258 7.28945
ltoes -27.4504
117
root 19.3893 18.5906 19.3264 -28.1796 77.8065 -36.7533
lowerback 16.7648 -4.43455 -5.43856
upperback 0.639429 -6.79579 0.613444
thorax -7.96661 -3.04431 5.26571
lowerneck -16.4947 -11.9534 -6.19024
upperneck 32.9884 -19.031 10.1798
head 16.2849 -7.27937 1.68324
rclavicle -3.26007e-014 -4.77083e-014
rhumerus -47.9266 17.8088 -85.1938
rradius 72.4779
rwrist -4.66662
rhand -44.5121 8.85932
rfingers 7.12502
rthumb -17.3141 -20.3895
lclavicle -3.26007e-014 -4.77083e-014
lhumerus 2.17886 -34.8225 83.5947
lradius 61.672
lwrist 21.5307
lhand -32.5861 -7.14024
lfingers 7.12502
lthumb -5.81464 22.76
rfemur -39.1794 -5.9511 24.5091
rtibia 58.1822
rfoot -27.2076 7.84436
rtoes -4.25667
lfemur -33.1504 -8.503 0.750853
ltibia 60.6259
lfoot -39.7196 6.12703
ltoes -26.9568
118
root 19.333 18.579 19.7693 -30.4076 78.2773 -38.9575
lowerback 16.6812 -4.37295 -5.67099
upperback 0.689025 -6.75166 0.59406
thorax -7.84704 -3.02156 5.35209
lowerneck -16.2342 -12.146 -6.32116
upperneck 32.8716 -19.3115 10.3065
head 16.2366 -7.41325 1.70697
rclavicle 1.13307e-013 1.43125e-014
rhumerus -48.4216 17.0368 -85.4819
rradius 72.0593
rwrist -4.48551
rhand -44.4079 9.18718
rfingers 7.12502
rthumb -17.2138 -20.0704
lclavicle 1.13307e-013 1.43125e-014
lhumerus 2.06796 -34.4567 83.3799
lradius 60.914
lwrist 21.7861
lhand -32.873 -7.02367
lfingers 7.12502
lthumb -6.09163 22.8687
rfemur -39.0228 -5.51463 24.132
rtibia 58.085
rfoot -26.4903 8.51531
rtoes -3.69247
lfemur -33.336 -8.75728 1.17804
ltibia 60.4049
lfoot -39.3866 4.93151
ltoes -26.5406
119
root 19.2779 18.5632 20.21 -32.818 78.6691 -41.3173
lowerback 16.6328 -4.29787 -5.86969
upperback 0.738578 -6.68294 0.597617
thorax -7.75153 -2.98665 5.44345
lowerneck -15.9692 -12.3216 -6.44843
upperneck 32.8064 -19.564 10.4075
head 16.2061 -7.53551 1.72698
rclavicle -2.18663e-014 -9.54166e-015
rhumerus -48.8456 16.2935 -85.7299
rradius 71.5327
rwrist -4.29059
rhand -44.2403 9.26505
rfingers 7.12502
rthumb -17.0525 -20.0065
lclavicle -2.18663e-014 -9.54166e-015
lhumerus 1.89234 -33.9294 83.2191
lradius 60.1256
lwrist 21.7678
lhand -32.8786 -7.14516
lfingers 7.12502
lthumb -6.09705 22.7471
rfemur -38.8864 -5.27196 23.9367
rtibia 58.0373
rfoot -26.0408 8.99724
rtoes -3.31518
lfemur -33.4984 -8.7565 1.53354
ltibia 60.2557
lfoot -39.183 3.95061
ltoes -26.3656
120
root 19.223 18.5502 20.6494 -34.8543 78.9948 -43.2163
lowerback 16.6721 -4.23238 -6.09461
upperback 0.808423 -6.64113 0.523618
thorax -7.68616 -2.96306 5.47949
lowerneck -15.7841 -12.4995 -6.46381
upperneck 32.854 -19.8394 10.4205
head 16.2251 -7.65538 1.68499
rclavicle 6.48038e-014 4.45278e-014
rhumerus -49.2479 15.7359 -86.0927
rradius 70.9702
rwrist -4.26803
rhand -43.9768 9.57257
rfingers 7.12502
rthumb -16.7989 -19.7207
lclavicle 6.48038e-014 4.45278e-014
lhumerus 1.61059 -33.3583 82.9029
lradius 59.4364
lwrist 21.692
lhand -33.0057 -7.06501
lfingers 7.12502
lthumb -6.21974 22.8237
rfemur -38.6992 -5.02116 23.7674
rtibia 58.0204
rfoot -25.9521 9.45511
rtoes -2.95948
lfemur -33.5838 -8.60099 1.70489
ltibia 60.1782
lfoot -39.0139 3.37913
ltoes -26.5132
121
root 19.1674 18.5355 21.0885 -37.0239 79.2386 -45.2526
lowerback 16.7254 -4.13979 -6.35704
upperback 0.86919 -6.56335 0.561021
thorax -7.62544 -2.9192 5.65088
lowerneck -15.6217 -12.6878 -6.69736
upperneck 32.9133 -20.0851 10.4806
head 16.2893 -7.78044 1.69967
rclavicle -4.13472e-014 3.65764e-014
rhumerus -49.6844 15.3406 -86.3458
rradius 70.4065
rwrist -4.25328
rhand -43.9134 9.45318
rfingers 7.12502
rthumb -16.7378 -19.8453
lclavicle -4.13472e-014 3.65764e-014
lhumerus 1.26003 -32.6723 82.791
lradius 58.7032
lwrist 21.5065
lhand -33.1757 -6.97216
lfingers 7.12502
lthumb -6.38381 22.9116
rfemur -38.5792 -4.98447 23.8246
rtibia 58.0335
rfoot -26.0264 9.56837
rtoes -3.02193
lfemur -33.7073 -8.34213 1.86718
ltibia 60.1736
lfoot -38.892 3.13848
ltoes -26.7698
122
root 19.1106 18.5225 21.5278 -38.9939 79.437 -47.0773
lowerback 16.7894 -4.06547 -6.5582
upperback 0.915152 -6.50355 0.555598
thorax -7.59704 -2.8849 5.74819
lowerneck -15.4599 -12.8408 -6.91388
upperneck 33.0158 -20.2938 10.5516
head 16.3721 -7.88372 1.72512
rclavicle -5.80451e-014 2.54444e-014
rhumerus -50.0697 15.0116 -86.6056
rradius 69.7111
rwrist -4.25969
rhand -43.6738 9.73816
rfingers 7.12502
rthumb -16.5072 -19.5796
lclavicle -5.80451e-014 2.54444e-014
lhumerus 0.79617 -31.9262 82.6353
lradius 58.032
lwrist 21.4298
lhand -33.4812 -6.64074
lfingers 7.12502
lthumb -6.67874 23.2339
rfemur -38.4969 -4.98413 23.9636
rtibia 58.0608
rfoot -26.3898 9.4066
rtoes -3.38358
lfemur -33.8233 -8.05881 1.98047
ltibia 60.1995
lfoot -38.8009 3.21897
ltoes -27.286
123
root 19.0535 18.5098 21.9635 -40.4751 79.6825 -48.3779
lowerback 16.8897 -3.94976 -6.80975
upperback 0.9765 -6.40656 0.460898
thorax -7.58283 -2.83097 5.77272
lowerneck -15.3008 -13.0334 -7.00731
upperneck 33.0896 -20.5919 10.6102
head 16.4345 -8.01242 1.70633
rclavicle 6.99722e-014 -7.95139e-015
rhumerus -50.3325 14.5104 -86.9155
rradius 68.8755
rwrist -4.28561
rhand -43.7122 9.66607
rfingers 7.12502
rthumb -16.5442 -19.6487
lclavicle 6.99722e-014 -7.95139e-015
lhumerus 0.321876 -31.3563 82.3942
lradius 57.4134
lwrist 21.6185
lhand -34.031 -6.15065
lfingers 7.12502
lthumb -7.20946 23.7065
rfemur -38.4362 -5.09885 24.0542
rtibia 58.1046
rfoot -26.9047 9.0396
rtoes -3.9578
lfemur -33.9056 -7.88604 1.94057
ltibia 60.2463
lfoot -38.8303 3.41944
ltoes -27.8325
124
root 18.9963 18.4994 22.3968 -41.8318 79.8521 -49.5381
lowerback 16.9942 -3.82586 -7.0319
upperback 1.02643 -6.29202 0.403073
thorax -7.58508 -2.76817 5.81814
lowerneck -15.09 -13.1906 -7.17537
upperneck 33.0936 -20.8631 10.8219
head 16.4852 -8.12461 1.77103
rclavicle -1.0138e-013 9.54166e-015
rhumerus -50.5967 14.1818 -87.1802
rradius 68.0192
rwrist -4.27385
rhand -43.3813 9.75069
rfingers 7.12502
rthumb -16.2255 -19.5903
lclavicle -1.0138e-013 9.54166e-015
lhumerus -0.255298 -30.6383 82.2786
lradius 56.8427
lwrist 22.0033
lhand -34.4805 -5.56897
lfingers 7.12502
lthumb -7.64341 24.2729
rfemur -38.3804 -5.24917 24.2139
rtibia 58.1703
rfoot -27.4969 8.32302
rtoes -5.35258
lfemur -33.9326 -7.79703 1.94493
ltibia 60.3094
lfoot -38.9766 3.62983
ltoes -28.1407
